<?xml version="1.0" encoding="UTF-8" standalone="no"?>
<!-- Created with Inkscape (http://www.inkscape.org/) -->

<svg
   width="297mm"
   height="210mm"
   viewBox="0 0 297 210"
   version="1.1"
   id="svg5"
   sodipodi:docname="frost2.svg"
   inkscape:version="1.2.2 (b0a8486541, 2022-12-01)"
   xmlns:inkscape="http://www.inkscape.org/namespaces/inkscape"
   xmlns:sodipodi="http://sodipodi.sourceforge.net/DTD/sodipodi-0.dtd"
   xmlns="http://www.w3.org/2000/svg"
   xmlns:svg="http://www.w3.org/2000/svg">
  <sodipodi:namedview
     id="namedview7"
     pagecolor="#ffffff"
     bordercolor="#000000"
     borderopacity="0.25"
     inkscape:showpageshadow="2"
     inkscape:pageopacity="0.0"
     inkscape:pagecheckerboard="0"
     inkscape:deskcolor="#d1d1d1"
     inkscape:document-units="mm"
     showgrid="false"
     inkscape:zoom="0.69664703"
     inkscape:cx="389.72391"
     inkscape:cy="561.25984"
     inkscape:window-width="1920"
     inkscape:window-height="1011"
     inkscape:window-x="0"
     inkscape:window-y="0"
     inkscape:window-maximized="1"
     inkscape:current-layer="layer1" />
  <defs
     id="defs2">
    <rect
       x="348.47723"
       y="590.51269"
       width="410.25753"
       height="134.73578"
       id="rect3986" />
    <rect
       x="875.01159"
       y="609.62768"
       width="463.10554"
       height="67.337051"
       id="rect3980" />
    <rect
       x="395.09001"
       y="626.28672"
       width="437.47495"
       height="69.781797"
       id="rect3974" />
  </defs>
  <g
     inkscape:label="Layer 1"
     inkscape:groupmode="layer"
     id="layer1">
    <path
       style="fill:none;stroke:#ffffff;stroke-width:3.96875"
       id="path3860"
       d="m 53.833619,12.985202 c -1.725112,1.210404 -3.688254,1.955449 -5.619591,2.756458 -1.557676,0.619499 -3.155079,1.135405 -4.743185,1.671429 -1.826689,0.601777 -3.553167,1.490589 -5.279541,2.33358 -0.823024,0.523825 -2.372421,1.012235 -2.948861,1.856402 -0.103843,0.152071 -0.158324,0.332519 -0.237487,0.498779 -0.322847,1.134605 -0.31483,2.329113 -0.319871,3.499661 0.0034,1.033995 0.355754,1.860355 1.088538,2.570335 2.592354,2.180021 5.580232,3.123835 8.789348,3.725246 2.770266,0.350904 5.577316,0.479716 8.369024,0.423511 3.238995,-0.185632 6.482739,-0.242433 9.72588,-0.302371 5.449758,-0.125947 10.89307,-0.419251 16.340799,-0.604986 4.583525,-0.150233 9.167574,-0.216657 13.751422,-0.07233 4.23704,0.202615 8.479306,0.185536 12.719896,0.212584 5.51164,0.01961 11.02331,0.02347 16.53498,0.02976 4.82836,0.01751 9.65671,-0.0016 14.48509,0.01034 3.59877,0.024 7.19756,0.0191 10.79638,0.01532 3.35325,0.0051 6.70646,0.008 10.05972,0.0034 2.8843,-0.0037 5.76776,0.05799 8.65065,-0.04633 3.1071,-0.082 6.20768,-0.233368 9.30739,-0.456875 2.58275,-0.172624 5.17185,-0.202033 7.75931,-0.22792 2.06981,-0.01193 4.13966,-0.01225 6.20949,-0.0063 1.85487,-0.04866 3.72047,0.11825 5.56533,-0.101701 1.41366,-0.163811 2.77886,-0.567904 4.17704,-0.814967 1.05619,-0.182554 1.93229,-0.707972 2.73432,-1.390761 0.71835,-0.65232 0.98629,-1.601062 1.26041,-2.499587 0.45343,-1.185484 0.91804,-2.364213 1.35653,-3.55588 0.38883,-1.109766 1.00657,-2.111304 1.57736,-3.131944 0.23597,-0.439351 0.51414,-0.852464 0.79695,-1.262242 0,0 -3.4029,-1.998355 -3.4029,-1.998355 v 0 c -0.28406,0.423151 -0.56563,0.848408 -0.80447,1.299498 -0.57293,1.042754 -1.21206,2.056198 -1.60292,3.187885 -0.43531,1.199676 -0.89459,2.385034 -1.37246,3.568193 -0.26376,0.821343 -0.48536,1.707646 -1.15468,2.300652 -0.76945,0.630918 -1.61382,1.075994 -2.61098,1.230791 -1.37667,0.271235 -2.73028,0.660604 -4.12991,0.808337 -1.84006,0.154749 -3.69053,0.04105 -5.53548,0.07419 -2.06606,0.0035 -4.13219,-0.0033 -6.19816,0.02035 -2.59002,0.03424 -5.18026,0.109529 -7.76663,0.253095 -3.08175,0.244248 -6.16525,0.422862 -9.25747,0.470379 -2.87766,0.05836 -5.75667,0.02275 -8.63487,0.04451 -3.35011,-0.0046 -6.70017,-0.0019 -10.05027,0.0034 -3.58424,-0.0037 -7.16846,-0.0085 -10.75265,0.01648 -4.81712,0.01328 -9.63421,-0.004 -14.45131,0.01408 -5.51065,0.0048 -11.02138,0.0092 -16.53194,-0.03075 -4.263031,-0.03377 -8.524817,-0.116411 -12.78535,-0.269912 -4.566129,-0.110945 -9.130842,-0.0049 -13.695471,0.142131 -5.456327,0.199457 -10.909146,0.50981 -16.369701,0.573236 -3.278691,0.01614 -6.557809,0.07306 -9.833195,0.228666 -2.775794,0.05604 -5.568513,-0.06165 -8.314454,-0.486243 -1.17543,-0.242798 -2.33408,-0.505778 -3.466161,-0.913469 -0.339709,-0.122338 -1.301007,-0.611931 -1.003964,-0.406664 0.767527,0.530381 3.970967,2.339432 2.415945,1.413086 -0.803468,-0.650547 -1.187355,-1.194683 -1.233602,-2.271318 -0.01085,-1.116885 -0.03886,-2.255333 0.239528,-3.3454 0.05766,-0.125557 0.09423,-0.263143 0.172976,-0.376671 0.557538,-0.803828 2.035128,-1.27632 2.816535,-1.789602 1.718572,-0.852455 3.45745,-1.687184 5.291296,-2.264355 1.582872,-0.53764 3.162816,-1.092873 4.710607,-1.724336 1.956565,-0.808366 3.916408,-1.608791 5.706163,-2.756653 0,0 -3.301373,-2.147971 -3.301373,-2.147971 z" />
    <path
       style="fill:none;stroke:#ffffff;stroke-width:3.96875"
       id="path3862"
       d="m 58.375965,12.860816 c 2.266698,0.190619 4.542094,0.222806 6.81492,0.276989 2.042435,0.134362 4.078481,-0.01553 6.116556,-0.129134 1.914009,-0.101132 3.831066,-0.118229 5.747141,-0.145897 3.407548,-0.07945 6.811724,0.02762 10.215925,0.164289 2.697194,0.2216 5.390756,0.435299 8.096297,0.516794 3.419827,0.04375 6.835456,0.242502 10.253526,0.355574 3.27863,0.09306 6.55921,0.0803 9.83886,0.09048 3.43363,-0.0025 6.86722,-5.02e-4 10.30084,0.0073 3.11757,0.0046 6.23508,-0.0079 9.35266,-0.0043 3.09771,-0.0016 6.19542,0.0049 9.29313,0.0021 2.56175,-0.0015 5.12347,0.01418 7.68521,0.01478 2.56066,-0.0047 5.12132,-0.01356 7.68197,-0.0045 2.21042,0.0067 4.42085,0.0031 6.63127,0.0058 2.61397,-0.0032 5.2279,-0.01308 7.84188,-0.01456 3.06457,-0.02918 6.1309,0.05177 9.19424,-0.04797 2.02873,-0.02951 4.03895,-0.290335 6.05246,-0.510127 1.75092,-0.191515 3.51655,-0.180112 5.27557,-0.190885 2.00444,0.06699 4.0005,-0.106841 5.99857,-0.231359 1.38846,-0.08761 2.77944,-0.115587 4.1703,-0.125785 0.76345,0.0331 1.56631,-0.102265 2.30306,0.145726 1.21736,0.860423 0.27659,0.185637 -3.02843,-1.700628 0,0 3.68629,1.488401 3.68629,1.488401 v 0 c -3.63522,-2.162963 -2.2337,-1.731748 -3.81409,-2.191939 -0.77276,-0.105247 -1.55298,-0.05069 -2.33049,-0.04861 -1.38651,0.02423 -2.77336,0.05708 -4.15666,0.16089 -1.98232,0.133517 -3.96331,0.288553 -5.95247,0.236954 -1.78242,0.01381 -3.57635,-0.04584 -5.34727,0.191588 -1.98316,0.245401 -3.96708,0.487611 -5.96786,0.530691 -3.05892,0.0966 -6.12026,0.02344 -9.1803,0.04289 -2.62733,-0.0015 -5.25464,-0.01138 -7.88197,-0.01456 -2.20507,0.0027 -4.41015,-8.47e-4 -6.61522,0.0058 -2.56474,0.0092 -5.12949,1.73e-4 -7.69424,-0.0045 -2.54819,6.09e-4 -5.09637,0.01629 -7.64456,0.01475 -3.0957,-0.0028 -6.19139,0.0037 -9.28709,0.0023 -3.1202,0.004 -6.24035,-0.0082 -9.36053,-0.0013 -3.42709,0.01022 -6.85413,0.01665 -10.28122,0.0058 -3.28348,-0.0041 -6.56729,-0.0205 -9.84969,-0.11226 C 99.111696,11.539335 95.691443,11.37113 92.268391,11.276385 89.574268,11.172044 86.889298,10.950887 84.19915,10.777529 80.784741,10.652484 77.372143,10.5619 73.954798,10.612974 c -1.939997,-0.0084 -3.880289,-0.0061 -5.817238,0.120652 -2.011248,0.121833 -4.022328,0.249211 -6.038474,0.146481 -2.311098,-0.05596 -4.620257,-0.147489 -6.924093,-0.344941 0,0 3.200972,2.325643 3.200972,2.325643 z" />
    <path
       style="fill:none;stroke:#ffffff;stroke-width:3.96875"
       id="path3864"
       d="m 32.961095,28.573275 c 0.697913,1.132265 1.167808,2.376588 1.683526,3.596182 0.477856,0.986687 0.937823,1.981644 1.388588,2.980973 0.34394,0.730477 0.526611,1.509987 0.619446,2.307518 0.02593,0.886476 0.391165,1.707552 0.65039,2.543374 0.360755,1.429771 0.610291,2.883982 0.946619,4.319693 0.436922,1.957681 0.810024,3.930139 1.16123,5.904984 0.200744,1.218195 0.451604,2.427711 0.683656,3.640347 0.387155,1.531932 0.780235,3.062522 1.146387,4.599728 0.225459,1.082566 0.447104,2.165628 0.592032,3.262328 0.126653,1.174623 0.326535,2.337721 0.432744,3.515016 0.0053,1.267463 0.182446,2.502239 0.464116,3.734176 0.316627,1.064606 0.523283,2.154933 0.748152,3.241148 0.266152,1.355278 0.316762,2.739049 0.354888,4.115851 0.02763,1.26443 0.02453,2.529255 0.0308,3.793908 0.007,1.44354 -0.0035,2.887117 -0.0095,4.330655 0.01799,1.04214 -0.17091,2.071687 -0.274058,3.105753 -0.107839,1.182888 -0.09255,2.372799 -0.102312,3.559413 0.0163,1.043895 -0.149947,2.078638 -0.268959,3.112971 -0.09383,0.932648 -0.0909,1.870472 -0.102333,2.806613 0.03966,1.209174 0.351806,2.387517 0.71919,3.533484 1.006509,2.60907 1.488784,2.15483 4.715396,3.85934 0.490858,-0.4466 0.541658,-1.09283 0.698738,-1.69819 0.05747,-0.22149 0.237721,-0.8121 0.303708,-1.03113 0.41888,-1.10138 0.662794,-2.25128 0.88484,-3.4049 0.356791,-1.260115 0.560422,-2.539603 0.671404,-3.841938 0.100082,-1.402755 0.09021,-2.809758 0.09861,-4.215125 0.06929,-1.430197 0.499922,-2.815288 0.825986,-4.203689 0.337413,-1.442746 0.574789,-2.909321 0.789353,-4.375105 0.189627,-1.244952 0.243015,-2.502945 0.265266,-3.760152 0.04339,-1.914359 0.477099,-3.808892 0.850024,-5.682755 0.317024,-1.504305 0.528513,-3.022616 0.623083,-4.556086 -0.02439,-1.503465 0.129181,-2.970477 0.3922,-4.448921 0.293172,-1.456605 0.507368,-2.927368 0.807614,-4.382354 0.09787,-0.330896 0.313579,-1.911586 0.624372,-2.016274 -4.590799,-2.281753 -3.599003,-2.416227 -2.442586,-0.145388 0.390785,0.856303 0.735809,1.734754 1.072447,2.614022 0.342825,1.062355 0.650086,2.13664 0.884803,3.228076 0.315429,1.325279 0.501867,2.67485 0.623287,4.030223 0.0487,1.259001 0.07536,2.487409 0.34439,3.721791 0.497602,1.745411 0.792924,3.534626 1.132689,5.313926 0.305236,1.466154 0.40999,2.960459 0.469291,4.453458 0.03718,1.227516 0.03523,2.455738 0.03758,3.683683 0.0079,1.710732 0.0098,3.421464 0.01421,5.132213 -0.0033,1.753703 -0.0031,3.507422 -0.0154,5.261094 -0.02625,1.919163 0.41474,3.802311 0.720026,5.686803 0.299747,1.552008 0.543695,3.113658 0.69537,4.687118 0.225513,1.32413 0.312227,2.65932 0.360612,3.99999 0.03773,1.37732 0.04077,2.7552 0.04396,4.13293 -0.0062,1.21619 -0.004,2.43238 -0.0019,3.64858 0.0063,1.58229 -0.04469,3.16052 0.148529,4.73346 0.34821,1.71781 0.781204,3.41451 1.126371,5.13318 0.330904,1.47207 0.422092,2.97852 0.611976,4.47027 0.255738,1.166 0.600848,2.30751 0.878647,3.46923 0.330792,1.48358 0.529786,2.99504 0.723757,4.50189 0.414041,2.05597 0.952066,4.08596 1.426366,6.12912 0.418965,2.13237 0.9902,4.23032 1.414507,6.3615 0.383453,1.7102 0.590831,3.45062 0.853914,5.18136 0.284266,1.56119 0.747202,3.08279 1.128525,4.6222 0.368818,1.43068 0.536681,2.89871 0.779624,4.35289 0.112921,1.12745 0.497218,2.1939 0.791363,3.28014 0.24833,1.0382 0.587875,2.03787 1.0164,3.01431 0.532214,1.10265 0.928634,2.25711 1.285816,3.42546 0.432859,1.37926 1.056381,2.68089 1.478518,4.06436 0.305517,1.28816 0.616678,2.57533 0.81017,3.88585 0.226529,1.96238 -0.224586,1.09213 3.650658,2.43118 0.119456,0.0413 0.0011,-0.25278 5.29e-4,-0.37916 -7.94e-4,-0.1722 -0.0027,-0.34439 -0.0041,-0.51659 -0.01664,-1.33717 -0.01318,-2.67441 -0.008,-4.01164 -0.0034,-1.05544 0.0083,-2.11092 -0.0016,-3.16633 -0.0029,-1.10773 -7.94e-4,-2.21548 0.0041,-3.32321 -5.3e-4,-1.03186 -0.0039,-2.06371 -0.0013,-3.09557 0.0011,-1.01116 0.0013,-2.02234 -7.94e-4,-3.0335 -5e-5,-1.11769 -0.0013,-2.23539 -0.0043,-3.35308 0.0036,-1.10402 0.0026,-2.20804 0.004,-3.31206 -0.0011,-1.25668 -0.0068,-2.51334 -0.0096,-3.77003 -0.0587,-1.19707 0.206029,-2.36954 0.532556,-3.51287 0.305922,-1.15256 0.491557,-2.33495 0.718125,-3.50581 0.177535,-1.35819 0.590949,-2.66551 0.90946,-3.99363 0.285136,-1.45283 0.450958,-2.92767 0.639371,-4.39608 0.181827,-1.3601 0.199562,-2.73386 0.222972,-4.10359 0.02511,-1.21481 0.02442,-2.42949 0.0072,-3.64432 -0.01304,-1.73492 -0.0037,-3.46986 -0.0086,-5.2048 -0.0055,-1.7217 0.0054,-3.4434 0.0024,-5.16511 0.0414,-2.20626 -0.05528,-4.40542 -0.234804,-6.60364 -0.210701,-2.20516 -0.378854,-4.41317 -0.467027,-6.62662 0.0058,-1.77402 -0.149225,-3.53978 -0.275682,-5.30744 -0.02582,-1.76597 -0.236517,-3.50629 -0.487339,-5.2518 -0.14592,-1.403746 -0.422084,-2.788151 -0.608192,-4.18603 -0.166632,-1.457817 -0.177107,-2.927157 -0.191207,-4.392572 -0.01,-1.496391 0.0019,-2.992782 -0.0013,-4.489188 -0.0079,-1.566506 0.0011,-3.132969 0.0058,-4.699458 -0.0024,-1.311632 0.0037,-2.623246 0.0051,-3.934868 0.0036,-1.185169 0.0013,-2.370253 -0.0035,-3.55541 0.0132,-1.367525 -0.03697,-2.736831 0.03722,-4.102734 0.08163,-1.396011 0.259416,-2.780025 0.452553,-4.163862 0.03073,-0.17271 0.04576,-0.348962 0.09218,-0.518131 0.04188,-0.152646 0.109037,-0.448747 0.258977,-0.398026 0.06131,0.02074 0.144113,0.203152 0.08638,0.173903 -3.027725,-1.533867 -4.179165,-2.650723 -3.081311,-1.613077 0.376481,0.65437 0.399949,1.441838 0.437917,2.178716 0.03542,1.06743 0.278744,2.063581 0.66852,3.0524 0.545454,1.290135 1.119706,2.56757 1.517885,3.912423 0.270709,1.343692 0.575837,2.681417 0.823426,4.030406 0.278712,1.919515 0.612905,3.830243 0.921007,5.745123 0.313383,2.042919 0.607226,4.084947 0.767918,6.14608 0.09115,1.801079 0.109331,3.601228 0.339776,5.391806 0.181768,1.581526 0.513514,3.133405 0.910055,4.673166 0.507802,1.603723 0.888347,3.243913 1.27235,4.880753 0.391123,2.17288 0.868354,4.32895 1.358855,6.48138 0.371202,1.3755 0.538916,2.78645 0.745955,4.19111 0.201729,1.32818 0.472845,2.64232 0.827591,3.93767 0.517379,2.05162 0.988906,4.11444 1.376981,6.19447 0.04584,0.24494 0.08912,0.49038 0.137528,0.73483 0.0085,0.0428 0.128722,0.61664 0.14623,0.62553 3.155735,1.60331 3.533343,2.93332 3.695636,1.07246 0.0078,-1.22462 -0.007,-2.44933 -0.0168,-3.67392 -0.0051,-1.12671 5.29e-4,-2.25344 0.0013,-3.38015 5.29e-4,-0.85229 0.0011,-1.70459 0.0037,-2.55688 -0.103577,-1.03522 0.195892,-2.01747 0.43085,-3.01181 0.246652,-0.78166 0.476366,-1.56372 0.604374,-2.37409 0.0661,-1.1358 0.148101,-2.27 0.233247,-3.40544 0.07016,-1.67063 0.164668,-3.33449 0.380775,-4.99297 0.329255,-1.43632 0.84719,-2.81392 1.108101,-4.26618 0.169582,-1.03656 0.208558,-2.086374 0.219083,-3.134558 0.0063,-1.184333 -0.01061,-2.368627 -0.01339,-3.552947 0.03237,-1.430451 0.214937,-2.844382 0.469048,-4.250018 0.117099,-1.113948 0.485532,-2.172329 0.764604,-3.250535 0.300185,-1.066898 0.543382,-2.150356 0.7455,-3.239879 0.136433,-1.050644 0.33437,-2.090359 0.536006,-3.130137 0.115337,-0.294473 0.162222,-0.788075 0.495782,-0.951992 0.04452,-0.02188 0.105526,-0.03253 0.148614,-0.0079 0.04828,0.02755 0.136072,0.168238 0.08689,0.14233 -1.09924,-0.579096 -2.171361,-1.208272 -3.257039,-1.812409 0.473646,0.450922 0.813146,1.045232 1.071348,1.642126 0.248483,1.125281 0.484611,2.257893 0.714634,3.389265 0.318495,1.620927 0.680501,3.232047 1.008788,4.85103 0.386146,1.742503 0.748572,3.488451 1.064815,5.244896 0.278892,1.972323 0.750362,3.908763 1.146822,5.858891 0.42156,1.919144 0.82693,3.841157 1.08589,5.789627 0.21115,1.83466 0.24136,3.68324 0.25291,5.52795 0.004,1.60957 0.002,3.21914 -0.002,4.82872 -0.0139,1.6596 -0.0445,3.31391 0.14374,4.96473 0.29108,2.29764 0.57909,4.59546 0.88952,6.89066 0.27526,2.06392 0.74425,4.09065 1.1115,6.13782 0.2387,1.5091 0.41291,3.02616 0.63862,4.5373 0.23923,1.07379 0.41165,2.15817 0.51548,3.25299 0.01,0.99802 0.30625,1.93454 0.66178,2.85494 0.35906,1.00786 3.11311,7.63405 4.45036,3.02232 0.0929,-1.64062 0.23574,-3.27849 0.33869,-4.91886 0.0602,-1.55403 0.57389,-3.02176 0.94443,-4.5156 0.27413,-1.03573 0.60757,-2.0506 1.00718,-3.04399 0.41372,-0.87656 0.80946,-1.76235 1.1154,-2.68278 0.49052,-1.32567 1.09979,-2.6028 1.63511,-3.91103 0.89117,-1.84659 1.60659,-3.74978 2.16289,-5.72151 0.41067,-1.79803 0.54141,-3.6466 0.60896,-5.48536 -0.0316,-1.35056 0.30551,-2.66326 0.66241,-3.95357 0.29994,-1.16008 0.56528,-2.32338 0.73313,-3.51018 0.0974,-0.83257 0.20734,-1.68096 0.53754,-2.45678 0.38165,-0.64525 0.60653,-1.36852 0.96474,-2.02482 0.18024,-0.33024 0.66068,-1.05119 0.86536,-1.3642 0.82693,-1.2238 1.52587,-2.527648 2.10821,-3.883751 0.67064,-1.638096 1.40018,-3.247877 1.94042,-4.935204 0.3538,-1.032769 0.63014,-2.08716 0.78414,-3.167906 0.18418,-1.39005 0.83249,-2.658108 1.29636,-3.969668 0.38927,-0.915771 0.43628,-1.926633 0.76363,-2.856905 0.22466,-0.785638 0.65877,-1.412825 1.1531,-2.048798 0.11204,-0.114935 0.21849,-0.235604 0.33612,-0.344811 0.0538,-0.04997 0.37304,-0.375438 0.54388,-0.314888 0.0704,0.02495 0.18806,0.222554 0.12179,0.188097 -3.19217,-1.659665 -3.92784,-2.865686 -3.11587,-1.61082 0.30327,0.676801 0.42127,1.412751 0.58487,2.130962 0.17904,0.946187 0.37758,1.886265 0.66818,2.805012 0.37923,1.006856 0.91237,1.942552 1.32173,2.936097 0.39793,0.987261 0.49156,2.049862 0.55349,3.101634 -0.0362,1.277421 0.27938,2.519172 0.4829,3.771884 0.22415,1.596019 0.24871,3.205702 0.45612,4.803653 0.21441,1.663112 0.39774,3.322282 0.85146,4.939792 0.49822,1.55198 1.05976,3.08181 1.68748,4.5858 0.72877,1.6467 1.31749,3.34045 1.79225,5.07559 0.40981,1.53604 1.00396,3.01359 1.45736,4.53571 0.28653,1.22016 0.88277,2.30685 1.47316,3.39766 0.45098,0.90715 0.97385,1.77889 1.37511,2.70994 0.34617,0.91797 0.32156,1.92057 0.33706,2.88752 0.005,0.85473 -0.003,1.70945 -0.008,2.56416 -0.0171,0.94883 -0.008,1.89129 0.0994,2.83449 0.19352,1.17402 0.4964,2.32658 0.79686,3.47688 0.28294,0.79097 0.56034,1.59211 0.91826,2.35363 4.48679,2.04807 3.49351,2.51991 4.2966,-0.56042 0.26393,-0.8801 0.69398,-1.69344 1.04858,-2.53724 0.29437,-0.78492 0.38781,-1.62181 0.63652,-2.42175 0.52056,-1.0448 0.98993,-2.10554 1.39929,-3.20004 0.1118,-0.26021 0.21671,-0.5235 0.3354,-0.78064 0.22733,-0.4925 0.50933,-0.95887 0.72957,-1.45457 0.39039,-0.8787 0.64238,-1.7972 0.88453,-2.72423 0.5165,-1.79658 0.92253,-3.61664 1.31423,-5.44359 0.35442,-1.52969 0.50339,-3.09417 0.7854,-4.63645 0.0887,-0.89403 0.33678,-1.7106 0.71676,-2.51867 0.3837,-0.89638 0.83763,-1.76014 1.35701,-2.5848 0.76239,-1.08174 1.37034,-2.2632 1.99215,-3.42883 0.89109,-1.58026 1.89279,-3.097 2.74639,-4.69787 0.70815,-1.440038 1.48349,-2.853344 2.04652,-4.358193 0.54725,-1.273485 1.11948,-2.535 1.66558,-3.809677 0.41279,-1.316506 0.96004,-2.581828 1.4676,-3.862946 0.43059,-1.258549 0.98821,-2.461154 1.5091,-3.682489 0.52611,-1.159598 0.7728,-2.41368 1.06151,-3.646308 0.16474,-0.953228 0.60614,-1.826323 0.97196,-2.71435 0.62031,-1.249849 1.35745,-2.437122 2.01577,-3.667434 0.3522,-0.702993 0.56659,-1.461506 0.95566,-2.146351 0.52155,-0.869304 1.36675,-1.398164 2.20147,-1.926777 0.78003,-0.414042 1.47766,-0.929733 2.0797,-1.573393 0.71424,-0.948023 1.51447,-1.823717 2.36061,-2.655059 0.74956,-0.74322 1.56734,-1.418421 2.28464,-2.193499 0.51551,-0.742323 1.07813,-1.448102 1.62735,-2.165014 0.52199,-0.707874 1.11102,-1.361014 1.71419,-1.999639 0.60044,-0.617064 1.20308,-1.231969 1.80473,-1.847866 0.98335,-0.973217 1.93474,-1.979739 2.95382,-2.915928 0.99005,-0.931862 1.88403,-1.96624 2.82526,-2.949876 0.83072,-0.76758 1.73862,-1.445543 2.59513,-2.185204 0.76391,-0.591143 1.60247,-1.043573 2.33374,-1.677234 0.8577,-0.803328 1.75288,-1.564711 2.6678,-2.301629 0.71936,-0.528817 1.31829,-1.184923 1.88045,-1.87298 0.53494,-0.660048 1.06452,-1.32475 1.60789,-1.977895 0.49457,-0.547905 0.95511,-1.124609 1.44056,-1.680464 0.47091,-0.548021 1.00084,-1.041347 1.47383,-1.586892 0.38511,-0.51685 0.70632,-1.076751 0.94387,-1.675463 0.27451,-0.711367 0.61644,-1.379537 0.81413,-2.119503 0.25181,-0.78391 0.44938,-1.576427 0.55144,-2.393233 0.0824,-0.763307 0.0813,-1.532525 0.0823,-2.299348 0.0181,-0.760466 -0.0361,-1.523468 0.0305,-2.281698 0.12818,-0.790398 0.22239,-1.584971 0.28149,-2.383379 0.0402,-0.671063 0.0487,-1.34358 0.0528,-2.015682 -0.002,-0.882749 -0.0289,-1.764983 0.0225,-2.646504 0.16255,-1.044684 0.45413,-2.06161 0.60278,-3.10873 0.10234,-0.830777 0.12448,-1.668275 0.12975,-2.504395 0,0 -3.52049,-1.797252 -3.52049,-1.797252 v 0 c -0.008,0.821529 -0.0116,1.644833 -0.10153,2.46252 -0.13653,1.057455 -0.403,2.088402 -0.60087,3.13509 -0.0857,0.883967 -0.0558,1.77016 -0.0652,2.657697 -3e-5,0.665811 0.001,1.33198 -0.0334,1.997123 -0.0477,0.794402 -0.12849,1.586073 -0.27169,2.369571 -0.0998,0.769025 -0.0335,1.54572 -0.0486,2.319769 -0.003,0.753187 0.002,1.507744 -0.0637,2.258825 -0.0856,0.801311 -0.26345,1.582338 -0.52186,2.346671 -0.18436,0.729062 -0.52894,1.377236 -0.8036,2.073079 -0.21184,0.559462 -0.51669,1.077664 -0.8706,1.559507 -0.47517,0.543616 -1.00649,1.035775 -1.47264,1.588067 -0.48422,0.560382 -0.9527,1.13402 -1.44304,1.689123 -0.54264,0.653997 -1.06084,1.327986 -1.60149,1.983722 -0.55063,0.663059 -1.14646,1.285967 -1.83327,1.810639 -0.90728,0.750305 -1.79642,1.522886 -2.67575,2.305576 -0.73974,0.614162 -1.59359,1.058897 -2.32461,1.686113 -0.86795,0.74421 -1.80013,1.415166 -2.61262,2.220701 -0.92863,0.983758 -1.81218,2.016016 -2.80906,2.930946 -1.01301,0.949724 -1.96948,1.957863 -2.96417,2.926677 -0.62046,0.605912 -1.24601,1.207241 -1.83252,1.846657 -0.60475,0.654442 -1.20523,1.314791 -1.7325,2.034675 -0.5385,0.709589 -1.09348,1.406226 -1.61161,2.131203 -0.70938,0.770834 -1.51288,1.449131 -2.24636,2.196671 -0.84092,0.843058 -1.65976,1.71341 -2.40237,2.644479 -0.58611,0.614357 -1.26888,1.093983 -2.01455,1.500976 -0.87902,0.573098 -1.74643,1.17294 -2.31313,2.081025 -0.39571,0.68917 -0.61721,1.447553 -0.94455,2.168898 -0.64391,1.250148 -1.36331,2.458008 -2.01891,3.701428 -0.39846,0.897376 -0.86725,1.790745 -1.02403,2.768216 -0.26062,1.216731 -0.48602,2.454553 -1.01297,3.591494 -0.51978,1.226161 -1.07848,2.432568 -1.50595,3.696581 -0.49935,1.279848 -1.06935,2.532091 -1.47185,3.848391 -0.54095,1.284078 -1.10734,2.555216 -1.66261,3.832849 -0.54436,1.494026 -1.31191,2.8916 -2.0123,4.316505 -0.85245,1.60015 -1.82404,3.13335 -2.73898,4.69808 -0.63788,1.14762 -1.26457,2.3074 -2.01099,3.38907 -0.52813,0.83702 -1.01216,1.70571 -1.39477,2.61978 -0.39193,0.8409 -0.69205,1.68051 -0.75546,2.61664 -0.25737,1.5475 -0.38256,3.11508 -0.73206,4.64747 -0.39397,1.82057 -0.81202,3.63219 -1.31245,5.42695 -0.44742,1.76361 -1.12835,3.29304 -1.94598,4.91102 -0.42785,1.09465 -0.90776,2.15647 -1.44612,3.19987 -0.25573,0.78766 -0.35611,1.6085 -0.62025,2.39159 -0.35599,0.86284 -0.78796,1.69501 -1.06039,2.59139 -0.16299,0.60122 -0.25602,1.24036 -0.46968,1.82642 -0.0264,0.0725 -0.1655,0.16515 -0.10136,0.20797 1.08818,0.72634 2.2575,1.32309 3.38625,1.98463 -0.56175,-0.50396 -0.63643,-1.59629 -1.01247,-2.24023 -0.32487,-1.12798 -0.60828,-2.27077 -0.8227,-3.42495 -0.11902,-0.9266 -0.14052,-1.84907 -0.10742,-2.78318 0.002,-0.86027 0.009,-1.72063 -0.005,-2.58083 -0.0188,-1.00344 0.0288,-2.04047 -0.25723,-3.01141 -0.37317,-0.96055 -0.93112,-1.83039 -1.37838,-2.75681 -0.57545,-1.07901 -1.22895,-2.12074 -1.51679,-3.32658 -0.43258,-1.53411 -1.06583,-3.00357 -1.48839,-4.54174 -0.46024,-1.75305 -1.02412,-3.4665 -1.76988,-5.12222 -0.62018,-1.49102 -1.17584,-3.00684 -1.68665,-4.53884 -0.49354,-1.59438 -0.68263,-3.24377 -0.90121,-4.89427 -0.1974,-1.597654 -0.2287,-3.203821 -0.42198,-4.801777 -0.19921,-1.237914 -0.5165,-2.464988 -0.48634,-3.72531 -0.0453,-1.084881 -0.12711,-2.18762 -0.49687,-3.217436 -0.38303,-1.003123 -0.89849,-1.937655 -1.33441,-2.917769 -0.31547,-0.897843 -0.49734,-1.827607 -0.66979,-2.761957 -0.16297,-0.732523 -0.27611,-1.480862 -0.5391,-2.186085 -0.39577,-1.481892 -2.88517,-3.261098 -4.2008,-2.264855 -0.23089,0.174842 -0.4803,0.462209 -0.67271,0.668036 -0.53084,0.661051 -0.99371,1.32524 -1.23063,2.150967 -0.34468,0.933477 -0.35882,1.951041 -0.72697,2.882726 -0.45708,1.341768 -1.12666,2.618994 -1.37373,4.020433 -0.12059,1.067491 -0.37107,2.110299 -0.71274,3.129103 -0.50372,1.687931 -1.21679,3.289446 -1.93688,4.894345 -0.54698,1.348716 -1.25208,2.618049 -2.05375,3.832529 -0.71721,1.10145 -1.34396,2.23369 -1.90615,3.42174 -0.35616,0.80589 -0.48701,1.68935 -0.57313,2.56194 -0.14681,1.17405 -0.40553,2.32063 -0.70524,3.46459 -0.36007,1.31983 -0.7069,2.66756 -0.68498,4.04595 -0.0529,1.81355 -0.13517,3.63859 -0.54915,5.41229 -0.53348,1.96267 -1.23283,3.85729 -2.13562,5.68269 -0.54712,1.31366 -1.18962,2.58226 -1.7093,3.90579 -0.28543,0.91797 -0.67571,1.79861 -1.0836,2.66803 -0.40847,1.01118 -0.77197,2.03511 -1.0313,3.09661 -0.35551,1.52236 -0.86744,3.01772 -0.94389,4.59247 -0.1028,1.61128 -0.25204,3.21897 -0.36903,4.82878 -0.18691,1.51221 -0.0971,0.2345 3.3848,2.15188 0.0676,0.0372 -0.13625,-0.085 -0.17501,-0.15174 -0.2665,-0.4592 -0.30355,-1.03611 -0.59338,-1.48738 -0.36392,-0.88469 -0.71125,-1.78001 -0.70782,-2.75317 -0.10821,-1.10189 -0.2549,-2.20242 -0.51631,-3.2797 -0.25143,-1.52099 -0.44036,-3.04878 -0.68824,-4.57022 -0.36111,-2.0473 -0.81067,-4.07465 -1.12964,-6.12997 -0.32198,-2.28586 -0.59562,-4.57667 -0.86126,-6.86956 -0.21013,-1.63393 -0.16231,-3.27254 -0.1557,-4.91733 0.002,-1.61189 0.0121,-3.22384 -0.002,-4.8357 -0.0251,-1.85952 -0.0378,-3.7234 -0.24226,-5.57403 -0.24376,-1.95922 -0.65002,-3.89127 -1.07966,-5.817326 -0.38952,-1.947328 -0.87296,-3.877265 -1.1439,-5.846484 -0.30055,-1.761596 -0.65911,-3.509875 -1.05829,-5.252061 -0.3188,-1.615223 -0.67431,-3.221054 -0.9832,-4.838015 -0.22218,-1.145389 -0.50655,-2.277771 -0.65348,-3.436564 -0.2325,-0.664859 -0.599425,-1.232901 -0.97349,-1.824408 -2.580399,-1.497087 -3.762497,-3.473157 -4.631936,-0.709642 -0.225489,1.038551 -0.407165,2.0853 -0.534488,3.140361 -0.196511,1.081019 -0.447243,2.153769 -0.746998,3.21074 -0.263543,1.092546 -0.648041,2.158769 -0.768008,3.281807 -0.235691,1.430932 -0.427758,2.864776 -0.490096,4.31564 0.0019,1.179568 -0.0037,2.359141 -0.0039,3.538714 -0.01072,1.030407 -0.0259,2.063756 -0.1757,3.085468 -0.244173,1.460693 -0.731914,2.85458 -1.094835,4.28778 -0.248086,1.66254 -0.299897,3.33506 -0.394091,5.01155 -0.09787,1.1198 -0.217969,2.23612 -0.267896,3.35907 -0.106654,0.80492 -0.321988,1.58234 -0.572379,2.35413 -0.230552,1.02007 -0.568026,2.02558 -0.484476,3.08495 0.0024,0.85392 0.0029,1.70785 0.0048,2.56176 0.0035,1.13115 0.01442,2.26226 0.02119,3.39339 0.0029,1.20845 0.02323,2.41743 -0.01148,3.62553 -0.09258,1.74029 -0.336838,0.3941 3.44219,2.40926 0.05573,0.0297 -0.08119,-0.0991 -0.105505,-0.1574 -0.137393,-0.32937 -0.233432,-0.85136 -0.304483,-1.16334 -0.412956,-2.07594 -0.859322,-4.144 -1.331433,-6.20745 -0.36063,-1.27854 -0.633199,-2.57395 -0.833885,-3.88793 -0.220168,-1.42144 -0.38086,-2.85299 -0.780116,-4.24133 -0.50419,-2.14631 -1.004067,-4.29549 -1.343581,-6.47515 -0.382428,-1.63663 -0.730271,-3.28607 -1.25495,-4.88417 -0.409493,-1.525179 -0.74626,-3.063649 -0.936906,-4.63284 -0.252767,-1.785311 -0.284908,-3.579765 -0.365289,-5.378818 -0.15109,-2.074153 -0.448675,-4.12691 -0.767106,-6.181243 -0.299053,-1.909498 -0.634373,-3.81377 -0.872191,-5.732484 -0.253915,-1.356997 -0.559189,-2.703129 -0.802619,-4.060989 -0.371179,-1.364919 -0.952966,-2.653784 -1.503079,-3.954137 -0.401667,-0.943112 -0.655344,-1.887463 -0.700815,-2.917126 -0.02883,-0.801688 -0.07506,-1.609529 -0.324448,-2.378821 -0.603057,-1.200201 -3.448185,-3.373128 -4.225391,-1.974438 -0.194985,0.350907 -0.179454,0.512631 -0.245843,0.922407 -0.183433,1.394923 -0.37383,2.786398 -0.458576,4.192172 -0.09985,1.371851 -0.03415,2.747695 -0.05363,4.122338 -0.0049,1.183984 -0.007,2.367896 -0.0034,3.551893 0.0013,1.313241 0.0074,2.626477 0.0047,3.939725 0.0041,1.567482 0.01185,3.13494 7.94e-4,4.702421 -0.0066,1.498209 -0.0021,2.996415 0.0038,4.49462 0.01109,1.47574 0.0089,2.955327 0.153651,4.425458 0.171133,1.409123 0.481936,2.795831 0.636823,4.207793 0.254386,1.735249 0.475208,3.462039 0.485085,5.219429 0.129746,1.76733 0.314192,3.53102 0.301781,5.30568 0.08175,2.22632 0.273285,4.44417 0.499118,6.66032 0.166682,2.18007 0.249047,4.36177 0.193272,6.54846 -0.003,1.72267 0.0079,3.44533 0.003,5.168 -0.0041,1.73307 0.0069,3.4661 -0.003,5.19915 -0.01527,1.21191 -0.0081,2.42358 -0.01087,3.63556 -0.01696,1.35656 -0.04488,2.71561 -0.205139,4.06431 -0.178488,1.45752 -0.347687,2.91918 -0.610865,4.36352 -0.311327,1.33379 -0.764138,2.63575 -0.941178,3.99794 -0.208712,1.16146 -0.404728,2.33 -0.702041,3.47156 -0.341201,1.17527 -0.620688,2.38876 -0.56524,3.62015 -0.0028,1.25343 -0.0085,2.50683 -0.0096,3.76026 0.0013,1.10538 2.65e-4,2.21076 0.004,3.31614 -0.003,1.11622 -0.0043,2.23244 -0.0043,3.34867 -0.0019,1.01091 -0.0019,2.02184 -7.94e-4,3.03274 0.0026,1.03139 -7.94e-4,2.06278 -0.0013,3.09417 0.0049,1.10917 0.0069,2.21835 0.0042,3.32752 -0.0096,1.05582 0.003,2.11171 0.0028,3.16757 0.0096,1.33527 0.02048,2.6706 0.0021,4.00585 -0.0029,0.16828 -0.0049,0.33658 -0.0088,0.50485 -0.0027,0.11668 -0.109114,0.28643 -0.01122,0.34997 4.257659,2.76338 3.636862,3.08485 3.423409,1.13919 -0.197818,-1.33302 -0.534334,-2.63498 -0.821074,-3.95052 -0.386207,-1.3919 -0.991073,-2.69257 -1.455226,-4.05669 -0.347668,-1.18501 -0.731322,-2.35964 -1.269606,-3.47456 -0.436113,-0.95015 -0.778865,-1.92932 -1.025218,-2.94634 -0.274532,-1.08653 -0.719545,-2.13111 -0.821603,-3.25724 -0.258244,-1.46501 -0.43108,-2.94494 -0.796123,-4.38977 -0.35937,-1.53383 -0.811763,-3.04453 -1.128882,-4.58684 -0.277556,-1.73825 -0.48722,-3.48819 -0.8714,-5.20788 -0.423709,-2.13798 -1.009219,-4.23904 -1.421709,-6.37935 -0.475666,-2.02386 -0.974977,-4.04362 -1.407346,-6.07636 -0.198006,-1.51581 -0.386799,-3.03697 -0.696068,-4.53438 -0.274645,-1.15047 -0.554112,-2.29515 -0.886574,-3.43061 -0.223813,-1.50025 -0.303096,-3.02324 -0.638929,-4.50765 -0.325035,-1.7138 -0.74228,-3.40307 -1.12136,-5.10543 -0.230031,-1.55177 -0.16474,-3.11335 -0.156749,-4.67839 0.0037,-1.21642 0.0093,-2.43284 0.0024,-3.64926 -0.0011,-1.38517 -0.0068,-2.7706 -0.05847,-4.15498 -0.04558,-1.34055 -0.05337,-2.68775 -0.319405,-4.00783 -0.165362,-1.58704 -0.423029,-3.16342 -0.728075,-4.72933 -0.298596,-1.861852 -0.758891,-3.721839 -0.720873,-5.617507 -0.01215,-1.758534 -0.01177,-3.517119 -0.0136,-5.275683 0.0061,-1.704321 0.01069,-3.408622 0.0236,-5.112901 0.0038,-1.23427 0.0082,-2.469017 -0.0391,-3.702635 -0.06315,-1.509754 -0.147698,-3.022896 -0.44332,-4.508581 -0.367622,-1.777119 -0.664916,-3.569719 -1.134763,-5.325121 -0.102026,-0.445474 -0.23055,-0.927002 -0.271878,-1.386575 -0.06783,-0.754267 0.02458,-1.523831 -0.06921,-2.278087 C 59.908081,66.934892 59.725621,65.56982 59.42306,64.229075 59.216669,63.118863 58.895084,62.037434 58.584431,60.95261 58.255702,60.059467 57.8904,59.179989 57.52627,58.301247 56.321363,55.80311 56.788283,56.577318 52.98376,54.732058 c -0.483158,0.61926 -0.506973,1.514798 -0.703429,2.247278 -0.28789,1.466175 -0.467582,2.949554 -0.759576,4.415544 -0.28117,1.48468 -0.525113,2.951885 -0.459103,4.469879 -0.07219,1.523481 -0.253362,3.036908 -0.549238,4.534156 -0.360217,1.892319 -0.840306,3.793017 -0.928758,5.718024 -0.02432,1.243439 -0.0615,2.488467 -0.232508,3.722233 -0.20596,1.456264 -0.446733,2.911247 -0.76653,4.346715 -0.343024,1.413031 -0.777888,2.825046 -0.877417,4.279352 0.0021,1.395878 -0.0029,2.792992 -0.08575,4.186867 -0.100129,1.288664 -0.29796,2.556928 -0.653293,3.802528 -0.222853,1.138338 -0.461312,2.277399 -0.878766,3.363405 -0.105026,0.350301 -0.220033,0.697701 -0.317021,1.050311 -0.09427,0.34274 -0.112019,1.00654 -0.43211,1.21485 1.069436,0.63663 2.136013,1.27808 3.208301,1.90989 0.09309,0.0549 -0.191183,-0.10528 -0.270351,-0.1788 -0.444434,-0.41273 -0.608174,-1.04947 -0.88764,-1.56534 -0.393362,-1.09721 -0.706009,-2.2443 -0.771425,-3.412013 0.0039,-0.923221 0.01471,-1.847696 0.09274,-2.76816 0.102643,-1.052092 0.280072,-2.102369 0.260215,-3.161567 0.0055,-1.173298 0.01251,-2.34822 0.105421,-3.51853 0.0956,-1.048295 0.293947,-2.091296 0.277601,-3.145843 -0.0044,-1.445442 -0.01196,-2.890949 -0.0019,-4.336373 0.0083,-1.26665 0.01595,-2.533583 -0.01524,-3.800006 -0.0479,-1.394143 -0.09303,-2.794588 -0.318569,-4.173591 -0.22424,-1.087948 -0.411507,-2.184077 -0.735904,-3.248596 -0.302104,-1.215057 -0.537634,-2.425589 -0.505085,-3.686852 -0.08409,-1.183873 -0.284541,-2.349334 -0.419076,-3.526925 -0.12836,-1.113404 -0.343299,-2.211803 -0.580803,-3.306654 -0.374538,-1.52989 -0.771432,-3.053511 -1.15553,-4.580895 -0.219229,-1.217346 -0.468966,-2.428619 -0.693994,-3.644535 -0.375658,-1.982311 -0.777193,-3.959979 -1.186781,-5.935493 -0.316378,-1.435545 -0.549021,-2.886901 -0.882303,-4.318781 -0.238207,-0.815332 -0.600295,-1.616511 -0.661401,-2.465498 -0.07539,-0.834255 -0.236272,-1.655459 -0.576701,-2.426618 -0.448297,-1.00687 -0.912675,-2.006751 -1.416495,-2.987252 -0.529873,-1.210892 -0.962919,-2.4658 -1.626409,-3.615177 0,0 -3.616952,-1.616268 -3.616952,-1.616268 z" />
    <text
       xml:space="preserve"
       transform="scale(0.26458333)"
       id="text3978"
       style="fill:none;stroke:#000000;stroke-width:14.24503937;stroke-dasharray:none;-inkscape-font-specification:'Liberation Mono';font-family:'Liberation Mono';font-weight:normal;font-style:normal;font-stretch:normal;font-variant:normal;white-space:pre;shape-inside:url(#rect3980)" />
    <text
       xml:space="preserve"
       transform="scale(0.26458333)"
       id="text3984"
       style="fill:none;stroke:#000000;stroke-width:14.24503937;stroke-dasharray:none;-inkscape-font-specification:'Liberation Mono';font-family:'Liberation Mono';font-weight:normal;font-style:normal;font-stretch:normal;font-variant:normal;white-space:pre;shape-inside:url(#rect3986)" />
  </g>
</svg>
