<?xml version="1.0" encoding="UTF-8" standalone="no"?>
<!-- Created with Inkscape (http://www.inkscape.org/) -->

<svg
   xmlns:dc="http://purl.org/dc/elements/1.1/"
   xmlns:cc="http://creativecommons.org/ns#"
   xmlns:rdf="http://www.w3.org/1999/02/22-rdf-syntax-ns#"
   xmlns:svg="http://www.w3.org/2000/svg"
   xmlns="http://www.w3.org/2000/svg"
   xmlns:xlink="http://www.w3.org/1999/xlink"
   xmlns:sodipodi="http://sodipodi.sourceforge.net/DTD/sodipodi-0.dtd"
   xmlns:inkscape="http://www.inkscape.org/namespaces/inkscape"
   width="135.58273mm"
   height="225.77777mm"
   viewBox="0 0 480.41127 799.99998"
   id="svg2"
   version="1.1"
   inkscape:version="0.91 r13725"
   sodipodi:docname="TribalShield.svg">
  <defs
     id="defs4">
    <clipPath
       id="id0">
      <path
         inkscape:connector-curvature="0"
         d="m 6500000,15909400 801930,0 c 189250,-89820 580580,-490790 580580,-490790 1077790,-1491570 -269440,-1504410 -269440,-1504410 l -1113070,0 -1113070,0 c 0,0 -1347230,12840 -266240,1504410 0,0 388130,400970 577380,490790 l 801930,0 z"
         id="path7" />
    </clipPath>
  </defs>
  <sodipodi:namedview
     id="base"
     pagecolor="#ffffff"
     bordercolor="#666666"
     borderopacity="1.0"
     inkscape:pageopacity="0.0"
     inkscape:pageshadow="2"
     inkscape:zoom="0.83750003"
     inkscape:cx="240.20563"
     inkscape:cy="399.99999"
     inkscape:document-units="px"
     inkscape:current-layer="layer1"
     showgrid="false"
     fit-margin-top="0"
     fit-margin-left="0"
     fit-margin-right="0"
     fit-margin-bottom="0"
     inkscape:window-width="1600"
     inkscape:window-height="837"
     inkscape:window-x="-8"
     inkscape:window-y="-8"
     inkscape:window-maximized="1" />
  <metadata
     id="metadata7">
    <rdf:RDF>
      <cc:Work
         rdf:about="">
        <dc:format>image/svg+xml</dc:format>
        <dc:type
           rdf:resource="http://purl.org/dc/dcmitype/StillImage" />
        <dc:title></dc:title>
      </cc:Work>
    </rdf:RDF>
  </metadata>
  <g
     inkscape:label="Layer 1"
     inkscape:groupmode="layer"
     id="layer1"
     transform="translate(547.101,3626.8545)">
    <g
       transform="matrix(2.7860429,0,0,2.7860429,-1150.1316,-3791.4935)"
       id="g4262">
      <path
         id="path27"
         d="m 302.66699,59.80702 c 28.569,28.571 85.711,66.668 85.711,142.86 0,66.668 -57.142,114.28 -85.711,142.86 -28.574,-28.571 -85.716,-76.188 -85.716,-142.86 0,-76.188 57.142,-114.28 85.716,-142.86 z"
         inkscape:connector-curvature="0"
         style="fill:#ffffff;stroke:#000000;stroke-width:1.00800002" />
      <path
         id="path29"
         d="m 246.76699,212.63702 c 8.549,-7.601 11.996,-1.254 12.557,-9.3 0.623,-8.485 9.034,-3.675 9.326,-10.812 0.218,-4.99 20.151,0.498 26.729,-4.305 6.857,-4.893 2.009,-8.991 6.963,-9.077 5.124,-0.085 4.607,13.317 20.39,13.552 9.096,0.393 9.678,11.31 15.531,11.831 5.505,0.648 8.595,-21.507 13.523,-21.211 4.913,0.304 4.144,23.922 9.747,24.95 5.033,0.527 9.158,-32.446 23.713,-35.098 1.609,4.92 3.124,18.919 3.132,29.499 0.048,66.657 -57.147,114.28 -85.716,142.85 -28.574,-28.571 -85.716,-76.188 -85.716,-142.86 0,0 18.082,19.789 29.815,9.971 z"
         inkscape:connector-curvature="0"
         style="fill:#000000" />
      <g
         transform="matrix(0,-1,1,0,102.66699,502.65702)"
         id="g31"
         style="stroke:#ffffff">
        <g
           id="c"
           style="stroke-width:6.92700005">
          <g
             id="b">
            <path
               d="m 213.933,192.377 0,-22.857 m 13.85,0 0,22.857 m 13.86,-22.857 0,22.857"
               id="a"
               inkscape:connector-curvature="0"
               style="stroke-width:6.92700005" />
            <use
               id="use36"
               y="38.099998"
               xlink:href="#a"
               x="0"
               width="100%"
               height="100%" />
          </g>
          <use
             id="use38"
             x="41.560001"
             xlink:href="#b"
             y="0"
             width="100%"
             height="100%" />
        </g>
      </g>
      <g
         transform="matrix(0,-1,1,0,102.66699,502.65702)"
         id="g40"
         style="stroke:#000000">
        <use
           id="use42"
           x="104.76"
           xlink:href="#c"
           y="0"
           width="100%"
           height="100%" />
      </g>
    </g>
  </g>
</svg>
